<svg width="100" height="166" viewBox="0 0 100 166" fill="none" xmlns="http://www.w3.org/2000/svg">
<path fill-rule="evenodd" clip-rule="evenodd" d="M82 75L99.3205 65L82 75Z" fill="#3498DB"/>
<path fill-rule="evenodd" clip-rule="evenodd" d="M82 75C82 108.673 63.7109 138.074 36.5244 153.812L53.8449 143.812C81.0314 128.074 99.3205 98.6729 99.3205 65L82 75Z" fill="#3498DB"/>
<path fill-rule="evenodd" clip-rule="evenodd" d="M36.5244 153.812C23.134 161.563 7.58514 166 -9 166L8.3205 156C24.9056 156 40.4545 151.563 53.8449 143.812L36.5244 153.812Z" fill="#3498DB"/>
<path fill-rule="evenodd" clip-rule="evenodd" d="M-9 166C-59.2579 166 -100 125.258 -100 75L-82.6795 65C-82.6795 115.258 -41.9374 156 8.3205 156L-9 166Z" fill="#3498DB"/>
<path fill-rule="evenodd" clip-rule="evenodd" d="M-9 -16C41.258 -16 82 24.7421 82 75L99.3205 65C99.3205 14.7421 58.5785 -26 8.3205 -26L-9 -16Z" fill="#3498DB"/>
</svg>
