<svg width="119" height="156" viewBox="0 0 119 156" fill="none" xmlns="http://www.w3.org/2000/svg">
<path fill-rule="evenodd" clip-rule="evenodd" d="M91 192C40.7421 192 0 151.258 0 101L17.3205 91C17.3205 141.258 58.0626 182 108.321 182L91 192Z" fill="#3498DB"/>
<path fill-rule="evenodd" clip-rule="evenodd" d="M0 101C0 67.3272 18.2891 37.926 45.4757 22.1882L62.7962 12.1882C35.6096 27.926 17.3205 57.3272 17.3205 91L0 101Z" fill="#3498DB"/>
<path fill-rule="evenodd" clip-rule="evenodd" d="M45.4757 22.1883C58.8661 14.4368 74.4149 10 91 10L108.321 0C91.7354 0 76.1866 4.43681 62.7962 12.1883L45.4757 22.1883Z" fill="#3498DB"/>
<path fill-rule="evenodd" clip-rule="evenodd" d="M91 10C141.258 10 182 50.7421 182 101L199.321 91C199.321 40.7421 158.578 0 108.32 0L91 10Z" fill="#3498DB"/>
</svg>
