<svg width="288" height="292" viewBox="0 0 288 292" fill="none" xmlns="http://www.w3.org/2000/svg">
<path fill-rule="evenodd" clip-rule="evenodd" d="M277.323 57.3386L287.156 51.6615L277.323 57.3386Z" fill="#3498DB"/>
<path fill-rule="evenodd" clip-rule="evenodd" d="M277.323 57.3386C277.323 76.4549 266.94 93.1462 251.506 102.081L261.339 96.4036C276.773 87.4691 287.156 70.7779 287.156 51.6615L277.323 57.3386Z" fill="#3498DB"/>
<path fill-rule="evenodd" clip-rule="evenodd" d="M251.506 102.081C243.904 106.481 235.077 109 225.661 109L235.494 103.323C244.91 103.323 253.737 100.804 261.339 96.4036L251.506 102.081Z" fill="#3498DB"/>
<path fill-rule="evenodd" clip-rule="evenodd" d="M225.661 109C197.13 109 174 85.8705 174 57.3386L183.833 51.6615C183.833 80.1934 206.963 103.323 235.494 103.323L225.661 109Z" fill="#3498DB"/>
<path fill-rule="evenodd" clip-rule="evenodd" d="M174 57.3385C174 38.2221 184.383 21.5309 199.817 12.5964L209.65 6.91931C194.216 15.8538 183.833 32.5451 183.833 51.6614L174 57.3385Z" fill="#3498DB"/>
<path fill-rule="evenodd" clip-rule="evenodd" d="M199.817 12.5965C207.419 8.1959 216.246 5.67708 225.661 5.67708L235.494 0C226.079 0 217.252 2.51882 209.65 6.91938L199.817 12.5965Z" fill="#3498DB"/>
<path fill-rule="evenodd" clip-rule="evenodd" d="M225.661 5.67708C254.193 5.67708 277.323 28.8067 277.323 57.3385L287.156 51.6615C287.156 23.1296 264.026 0 235.494 0L225.661 5.67708Z" fill="#3498DB"/>
<path fill-rule="evenodd" clip-rule="evenodd" d="M103.323 240.339L113.156 234.661L103.323 240.339Z" fill="#3498DB"/>
<path fill-rule="evenodd" clip-rule="evenodd" d="M103.323 240.339C103.323 259.455 92.94 276.146 77.506 285.081L87.339 279.404C102.773 270.469 113.156 253.778 113.156 234.661L103.323 240.339Z" fill="#3498DB"/>
<path fill-rule="evenodd" clip-rule="evenodd" d="M77.506 285.081C69.9042 289.481 61.077 292 51.6615 292L61.4944 286.323C70.91 286.323 79.7372 283.804 87.339 279.404L77.506 285.081Z" fill="#3498DB"/>
<path fill-rule="evenodd" clip-rule="evenodd" d="M51.6615 292C23.1296 292 0 268.87 0 240.339L9.83299 234.661C9.83299 263.193 32.9626 286.323 61.4944 286.323L51.6615 292Z" fill="#3498DB"/>
<path fill-rule="evenodd" clip-rule="evenodd" d="M0 240.338C0 221.222 10.3829 204.531 25.8169 195.596L35.6499 189.919C20.2159 198.854 9.83299 215.545 9.83299 234.661L0 240.338Z" fill="#3498DB"/>
<path fill-rule="evenodd" clip-rule="evenodd" d="M25.8169 195.596C33.4188 191.196 42.246 188.677 51.6615 188.677L61.4945 183C52.0789 183 43.2517 185.519 35.6499 189.919L25.8169 195.596Z" fill="#3498DB"/>
<path fill-rule="evenodd" clip-rule="evenodd" d="M51.6615 188.677C80.1933 188.677 103.323 211.807 103.323 240.339L113.156 234.661C113.156 206.13 90.0263 183 61.4944 183L51.6615 188.677Z" fill="#3498DB"/>
</svg>
