<svg width="288" height="60" viewBox="0 0 288 60" fill="none" xmlns="http://www.w3.org/2000/svg">
<path d="M0 30C0 15.8579 0 8.78679 5.44214 4.3934C10.8843 0 19.6433 0 37.1613 0C54.6793 0 63.4382 0 68.8805 4.3934C74.3226 8.78679 74.3226 15.8579 74.3226 30C74.3226 44.1421 74.3226 51.2131 68.8805 55.6066C63.4382 60 54.6793 60 37.1613 60C19.6433 60 10.8843 60 5.44214 55.6066C0 51.2131 0 44.1421 0 30Z" fill="#3498DB"/>
<path d="M44.5937 39C45.6199 39 46.4705 39.6782 46.2667 40.4901C45.9064 41.9241 45.0312 43.2532 43.7306 44.3032C41.9885 45.7098 39.6254 46.5 37.1614 46.5C34.6974 46.5 32.3345 45.7098 30.5922 44.3032C29.2916 43.2532 28.4164 41.9241 28.0563 40.4901C27.8523 39.6782 28.7029 39 29.7291 39H44.5937Z" fill="#2DF8BB"/>
<path d="M48.4996 26.6647C47.5083 26.8791 46.9013 27.7162 47.4039 28.4385C47.9329 29.1987 48.6646 29.8621 49.5548 30.3771C50.9524 31.1856 52.654 31.578 54.37 31.4871C56.0857 31.3963 57.7095 30.8281 58.9644 29.8792C60.2195 28.9303 61.028 27.6594 61.2524 26.2831C61.4769 24.9069 61.1034 23.5104 60.1954 22.3315C59.2873 21.1528 57.901 20.2647 56.2728 19.8184C54.6446 19.3722 52.8752 19.3956 51.2659 19.8846C50.241 20.196 49.3216 20.6839 48.5669 21.3076C47.8498 21.9003 48.1678 22.8358 49.0565 23.25L49.9991 23.6893C51.4326 24.3576 51.1499 26.0914 49.5509 26.4373L48.4996 26.6647Z" fill="#2DF8BB"/>
<path d="M25.8228 26.6647C26.8141 26.8791 27.4211 27.7162 26.9185 28.4385C26.3895 29.1987 25.6578 29.8621 24.7678 30.3771C23.3701 31.1856 21.6683 31.578 19.9526 31.4871C18.2367 31.3963 16.613 30.8281 15.358 29.8792C14.103 28.9303 13.2944 27.6594 13.0699 26.2831C12.8455 24.9069 13.2191 23.5104 14.1271 22.3315C15.0351 21.1528 16.4214 20.2647 18.0496 19.8184C19.6778 19.3722 21.4474 19.3956 23.0567 19.8846C24.0814 20.196 25.001 20.6839 25.7557 21.3076C26.4727 21.9003 26.1546 22.8358 25.2659 23.25L24.3233 23.6893C22.8898 24.3576 23.1726 26.0914 24.7715 26.4373L25.8228 26.6647Z" fill="#2DF8BB"/>
<path d="M99.5918 35.3203C99.5918 34.8633 99.5098 34.4355 99.3457 34.0371C99.1934 33.6387 98.9297 33.2637 98.5547 32.9121C98.168 32.5723 97.6641 32.2617 97.043 31.9805C96.4336 31.6875 95.6719 31.418 94.7578 31.1719C93.3398 30.7852 92.0918 30.3164 91.0137 29.7656C89.9473 29.2148 89.0742 28.6113 88.3945 27.9551C87.7148 27.2988 87.1992 26.5723 86.8477 25.7754C86.5078 24.9785 86.3379 24.1113 86.3379 23.1738C86.3379 22.0957 86.5664 21.1172 87.0234 20.2383C87.4805 19.3594 88.1133 18.6094 88.9219 17.9883C89.7305 17.3672 90.6855 16.8926 91.7871 16.5645C92.8887 16.2246 94.084 16.0547 95.373 16.0547C96.709 16.0547 97.9277 16.248 99.0293 16.6348C100.143 17.0215 101.098 17.5605 101.895 18.252C102.691 18.9551 103.312 19.7871 103.758 20.748C104.203 21.709 104.426 22.7637 104.426 23.9121H99.6094C99.5859 23.3379 99.4805 22.8105 99.293 22.3301C99.1172 21.8496 98.8535 21.4336 98.502 21.082C98.1387 20.7422 97.6875 20.4785 97.1484 20.291C96.6211 20.0918 96 19.9922 95.2852 19.9922C94.6289 19.9922 94.043 20.0742 93.5273 20.2383C93.0234 20.3906 92.5957 20.6074 92.2441 20.8887C91.8926 21.1816 91.623 21.5273 91.4355 21.9258C91.2598 22.3125 91.1719 22.7344 91.1719 23.1914C91.1719 23.6719 91.2891 24.1055 91.5234 24.4922C91.7695 24.8789 92.1211 25.2246 92.5781 25.5293C93.0352 25.8457 93.5859 26.1328 94.2305 26.3906C94.8867 26.6484 95.625 26.8887 96.4453 27.1113C97.3242 27.3574 98.1621 27.6562 98.959 28.0078C99.7559 28.3594 100.488 28.7637 101.156 29.2207C102.164 29.9707 102.967 30.8438 103.564 31.8398C104.162 32.8359 104.461 33.9844 104.461 35.2852C104.461 36.4102 104.232 37.4121 103.775 38.291C103.33 39.1582 102.709 39.8906 101.912 40.4883C101.115 41.0977 100.166 41.5605 99.0645 41.877C97.9629 42.1816 96.7617 42.334 95.4609 42.334C94.1836 42.334 92.918 42.1465 91.6641 41.7715C90.4219 41.3848 89.3379 40.8223 88.4121 40.084C87.5332 39.3574 86.8359 38.502 86.3203 37.5176C85.8164 36.5332 85.5645 35.3789 85.5645 34.0547H90.416C90.4395 34.8281 90.5742 35.4902 90.8203 36.041C91.0664 36.5918 91.4121 37.043 91.8574 37.3945C92.291 37.7461 92.8125 38.0039 93.4219 38.168C94.043 38.332 94.7227 38.4141 95.4609 38.4141C96.1172 38.4141 96.6973 38.3379 97.2012 38.1855C97.7168 38.0332 98.1504 37.8223 98.502 37.5527C98.8535 37.2832 99.123 36.9609 99.3105 36.5859C99.498 36.1992 99.5918 35.7773 99.5918 35.3203ZM105.11 49.3125V22.9805H109.628L109.803 24.8438C110.061 24.5273 110.342 24.2461 110.647 24C110.952 23.7422 111.28 23.5195 111.631 23.332C112.053 23.1094 112.516 22.9395 113.02 22.8223C113.536 22.6934 114.086 22.6289 114.672 22.6289C115.879 22.6289 116.946 22.8633 117.872 23.332C118.797 23.7891 119.577 24.4395 120.21 25.2832C120.842 26.1387 121.317 27.1641 121.633 28.3594C121.961 29.543 122.126 30.8555 122.126 32.2969V32.666C122.126 34.0488 121.961 35.332 121.633 36.5156C121.317 37.6992 120.848 38.7188 120.227 39.5742C119.594 40.4414 118.815 41.1211 117.889 41.6133C116.963 42.1055 115.903 42.3516 114.708 42.3516C114.075 42.3516 113.489 42.2812 112.95 42.1406C112.422 42.0117 111.93 41.8184 111.473 41.5605C111.204 41.3965 110.946 41.2148 110.7 41.0156C110.454 40.8164 110.219 40.5938 109.997 40.3477V49.3125H105.11ZM117.239 32.2969C117.239 31.5 117.163 30.7559 117.01 30.0645C116.87 29.3613 116.647 28.752 116.342 28.2363C116.026 27.7324 115.622 27.334 115.129 27.041C114.649 26.748 114.063 26.6016 113.372 26.6016C112.973 26.6016 112.61 26.6426 112.282 26.7246C111.954 26.7949 111.655 26.9004 111.385 27.041C111.081 27.2051 110.811 27.4102 110.577 27.6562C110.354 27.9023 110.161 28.1895 109.997 28.5176V36.4629C110.149 36.7676 110.331 37.043 110.542 37.2891C110.764 37.5352 111.016 37.7461 111.297 37.9219C111.567 38.0859 111.878 38.2148 112.229 38.3086C112.581 38.3906 112.973 38.4316 113.407 38.4316C114.098 38.4316 114.684 38.2793 115.165 37.9746C115.657 37.6699 116.055 37.2539 116.36 36.7266C116.665 36.1992 116.887 35.5898 117.028 34.8984C117.169 34.1953 117.239 33.4512 117.239 32.666V32.2969ZM135.484 42C135.366 41.7656 135.267 41.4961 135.185 41.1914C135.103 40.8867 135.032 40.5645 134.974 40.2246C134.704 40.5176 134.394 40.793 134.042 41.0508C133.691 41.3086 133.304 41.5312 132.882 41.7188C132.448 41.918 131.974 42.0703 131.458 42.1758C130.943 42.293 130.386 42.3516 129.788 42.3516C128.816 42.3516 127.919 42.2109 127.099 41.9297C126.29 41.6484 125.593 41.2559 125.007 40.752C124.421 40.248 123.964 39.6504 123.636 38.959C123.308 38.2559 123.144 37.4941 123.144 36.6738C123.144 35.6191 123.349 34.6875 123.759 33.8789C124.169 33.0586 124.784 32.3848 125.605 31.8574C126.343 31.377 127.251 31.0137 128.329 30.7676C129.419 30.5098 130.667 30.3809 132.073 30.3809H134.798V29.2559C134.798 28.8105 134.728 28.4121 134.587 28.0605C134.446 27.6973 134.235 27.3867 133.954 27.1289C133.661 26.8594 133.292 26.6543 132.847 26.5137C132.413 26.3613 131.903 26.2852 131.318 26.2852C130.802 26.2852 130.357 26.3496 129.982 26.4785C129.607 26.5957 129.302 26.7656 129.068 26.9883C128.857 27.1875 128.698 27.4277 128.593 27.709C128.499 27.9902 128.452 28.3008 128.452 28.6406H123.566C123.566 27.832 123.741 27.0645 124.093 26.3379C124.456 25.6113 124.984 24.9727 125.675 24.4219C126.355 23.8711 127.187 23.4375 128.171 23.1211C129.167 22.793 130.304 22.6289 131.581 22.6289C132.73 22.6289 133.796 22.7695 134.78 23.0508C135.776 23.332 136.638 23.748 137.364 24.2988C138.091 24.8496 138.659 25.5469 139.069 26.3906C139.48 27.2227 139.685 28.1895 139.685 29.291V37.4473C139.685 38.4668 139.749 39.3105 139.878 39.9785C140.007 40.6465 140.194 41.2207 140.441 41.7012V42H135.484ZM130.825 38.5723C131.318 38.5723 131.775 38.5137 132.196 38.3965C132.618 38.2793 132.999 38.127 133.339 37.9395C133.679 37.752 133.972 37.541 134.218 37.3066C134.464 37.0605 134.657 36.8145 134.798 36.5684V33.2988H132.302C131.54 33.2988 130.89 33.375 130.351 33.5273C129.812 33.668 129.372 33.8672 129.032 34.125C128.693 34.3945 128.441 34.7168 128.276 35.0918C128.112 35.4551 128.03 35.8535 128.03 36.2871C128.03 36.627 128.089 36.9434 128.206 37.2363C128.335 37.5176 128.517 37.7578 128.751 37.957C128.985 38.1445 129.273 38.2969 129.612 38.4141C129.964 38.5195 130.368 38.5723 130.825 38.5723ZM150.582 38.4492C151.062 38.4492 151.519 38.3789 151.953 38.2383C152.386 38.0977 152.767 37.8984 153.095 37.6406C153.424 37.3828 153.675 37.0723 153.851 36.709C154.039 36.3457 154.121 35.9414 154.097 35.4961H158.703C158.726 36.4805 158.521 37.3945 158.088 38.2383C157.666 39.082 157.086 39.8086 156.347 40.418C155.609 41.0273 154.748 41.5078 153.763 41.8594C152.791 42.1992 151.759 42.3691 150.67 42.3691C149.193 42.3691 147.898 42.123 146.785 41.6309C145.672 41.127 144.746 40.4414 144.007 39.5742C143.257 38.707 142.689 37.6934 142.302 36.5332C141.927 35.3613 141.74 34.1074 141.74 32.7715V32.2441C141.74 30.9082 141.927 29.6602 142.302 28.5C142.677 27.3281 143.24 26.3086 143.99 25.4414C144.74 24.5742 145.666 23.8887 146.767 23.3848C147.881 22.8809 149.17 22.6289 150.634 22.6289C151.806 22.6289 152.89 22.8047 153.886 23.1562C154.882 23.5078 155.744 24 156.47 24.6328C157.185 25.2773 157.742 26.0566 158.14 26.9707C158.539 27.873 158.726 28.8867 158.703 30.0117H154.097C154.121 29.543 154.05 29.0977 153.886 28.6758C153.722 28.2539 153.482 27.8906 153.166 27.5859C152.849 27.2812 152.468 27.041 152.023 26.8652C151.578 26.6777 151.091 26.584 150.564 26.584C149.791 26.584 149.152 26.7422 148.648 27.0586C148.144 27.375 147.746 27.7969 147.453 28.3242C147.148 28.8516 146.931 29.4551 146.802 30.1348C146.685 30.8145 146.627 31.5176 146.627 32.2441V32.7715C146.627 33.5098 146.685 34.2246 146.802 34.916C146.92 35.5957 147.131 36.1934 147.435 36.709C147.728 37.2363 148.127 37.6582 148.631 37.9746C149.146 38.291 149.797 38.4492 150.582 38.4492ZM169.951 42.3516C168.487 42.3516 167.156 42.1113 165.961 41.6309C164.766 41.1504 163.74 40.4941 162.885 39.6621C162.03 38.8418 161.367 37.875 160.899 36.7617C160.442 35.6367 160.213 34.4355 160.213 33.1582V32.4551C160.213 31.002 160.442 29.6777 160.899 28.4824C161.356 27.2754 161.994 26.2383 162.815 25.3711C163.635 24.5039 164.608 23.8301 165.733 23.3496C166.858 22.8691 168.082 22.6289 169.406 22.6289C170.778 22.6289 171.996 22.8574 173.063 23.3145C174.141 23.7598 175.055 24.3926 175.805 25.2129C176.543 26.0332 177.106 27.0234 177.492 28.1836C177.879 29.332 178.073 30.6035 178.073 31.998V34.0723H165.17V34.125C165.334 34.8867 165.545 35.502 165.803 35.9707C166.061 36.4277 166.406 36.8438 166.84 37.2188C167.285 37.6055 167.795 37.9043 168.369 38.1152C168.944 38.3262 169.571 38.4316 170.25 38.4316C171.211 38.4316 172.143 38.25 173.045 37.8867C173.948 37.5234 174.68 36.9785 175.242 36.252L177.686 38.8887C177.065 39.7676 176.08 40.5645 174.733 41.2793C173.385 41.9941 171.791 42.3516 169.951 42.3516ZM169.371 26.584C168.821 26.584 168.317 26.6836 167.86 26.8828C167.403 27.0703 167.004 27.3457 166.664 27.709C166.313 28.0723 166.02 28.5059 165.785 29.0098C165.551 29.5137 165.375 30.0762 165.258 30.6973H173.274V30.3105C173.274 29.7949 173.18 29.3086 172.992 28.8516C172.805 28.3945 172.547 27.9961 172.219 27.6562C171.891 27.3281 171.487 27.0703 171.006 26.8828C170.537 26.6836 169.992 26.584 169.371 26.584ZM197.917 20.4316H190.024V42H185.067V20.4316H177.28V16.4062H197.917V20.4316ZM207.074 42.3516C205.609 42.3516 204.279 42.1113 203.083 41.6309C201.888 41.1504 200.863 40.4941 200.007 39.6621C199.152 38.8418 198.49 37.875 198.021 36.7617C197.564 35.6367 197.335 34.4355 197.335 33.1582V32.4551C197.335 31.002 197.564 29.6777 198.021 28.4824C198.478 27.2754 199.117 26.2383 199.937 25.3711C200.757 24.5039 201.73 23.8301 202.855 23.3496C203.98 22.8691 205.204 22.6289 206.529 22.6289C207.9 22.6289 209.119 22.8574 210.185 23.3145C211.263 23.7598 212.177 24.3926 212.927 25.2129C213.665 26.0332 214.228 27.0234 214.615 28.1836C215.001 29.332 215.195 30.6035 215.195 31.998V34.0723H202.292V34.125C202.456 34.8867 202.667 35.502 202.925 35.9707C203.183 36.4277 203.529 36.8438 203.962 37.2188C204.408 37.6055 204.917 37.9043 205.492 38.1152C206.066 38.3262 206.693 38.4316 207.372 38.4316C208.333 38.4316 209.265 38.25 210.167 37.8867C211.07 37.5234 211.802 36.9785 212.365 36.252L214.808 38.8887C214.187 39.7676 213.202 40.5645 211.855 41.2793C210.507 41.9941 208.913 42.3516 207.074 42.3516ZM206.494 26.584C205.943 26.584 205.439 26.6836 204.982 26.8828C204.525 27.0703 204.126 27.3457 203.786 27.709C203.435 28.0723 203.142 28.5059 202.908 29.0098C202.673 29.5137 202.497 30.0762 202.38 30.6973H210.396V30.3105C210.396 29.7949 210.302 29.3086 210.115 28.8516C209.927 28.3945 209.669 27.9961 209.341 27.6562C209.013 27.3281 208.609 27.0703 208.128 26.8828C207.66 26.6836 207.115 26.584 206.494 26.584ZM224.826 38.4492C225.307 38.4492 225.764 38.3789 226.197 38.2383C226.631 38.0977 227.012 37.8984 227.34 37.6406C227.668 37.3828 227.92 37.0723 228.096 36.709C228.283 36.3457 228.365 35.9414 228.342 35.4961H232.947C232.971 36.4805 232.766 37.3945 232.332 38.2383C231.91 39.082 231.33 39.8086 230.592 40.418C229.853 41.0273 228.992 41.5078 228.008 41.8594C227.035 42.1992 226.004 42.3691 224.914 42.3691C223.437 42.3691 222.143 42.123 221.029 41.6309C219.916 41.127 218.99 40.4414 218.252 39.5742C217.502 38.707 216.934 37.6934 216.547 36.5332C216.172 35.3613 215.984 34.1074 215.984 32.7715V32.2441C215.984 30.9082 216.172 29.6602 216.547 28.5C216.922 27.3281 217.484 26.3086 218.234 25.4414C218.984 24.5742 219.91 23.8887 221.012 23.3848C222.125 22.8809 223.414 22.6289 224.879 22.6289C226.051 22.6289 227.135 22.8047 228.131 23.1562C229.127 23.5078 229.988 24 230.715 24.6328C231.43 25.2773 231.986 26.0566 232.385 26.9707C232.783 27.873 232.971 28.8867 232.947 30.0117H228.342C228.365 29.543 228.295 29.0977 228.131 28.6758C227.967 28.2539 227.726 27.8906 227.41 27.5859C227.094 27.2812 226.713 27.041 226.268 26.8652C225.822 26.6777 225.336 26.584 224.809 26.584C224.035 26.584 223.396 26.7422 222.893 27.0586C222.389 27.375 221.99 27.7969 221.697 28.3242C221.393 28.8516 221.176 29.4551 221.047 30.1348C220.93 30.8145 220.871 31.5176 220.871 32.2441V32.7715C220.871 33.5098 220.93 34.2246 221.047 34.916C221.164 35.5957 221.375 36.1934 221.68 36.709C221.973 37.2363 222.371 37.6582 222.875 37.9746C223.391 38.291 224.041 38.4492 224.826 38.4492ZM239.854 25.5996C240.1 25.2363 240.37 24.9023 240.663 24.5977C240.967 24.2812 241.284 24.0059 241.612 23.7715C242.116 23.4082 242.672 23.127 243.282 22.9277C243.891 22.7285 244.536 22.6289 245.215 22.6289C246.211 22.6289 247.125 22.7812 247.958 23.0859C248.79 23.3789 249.504 23.8418 250.102 24.4746C250.7 25.1074 251.163 25.9219 251.491 26.918C251.831 27.9023 252 29.0918 252 30.4863V42H247.114V30.4512C247.114 29.7715 247.026 29.1855 246.85 28.6934C246.686 28.2012 246.446 27.8027 246.129 27.498C245.813 27.1934 245.432 26.9707 244.987 26.8301C244.541 26.6777 244.038 26.6016 243.475 26.6016C243.041 26.6016 242.637 26.6426 242.262 26.7246C241.887 26.8066 241.547 26.9297 241.243 27.0938C240.961 27.2344 240.704 27.4043 240.469 27.6035C240.247 27.8027 240.041 28.0254 239.854 28.2715V42H234.967V15H239.854V25.5996Z" fill="url(#paint0_linear_240_660)"/>
<defs>
<linearGradient id="paint0_linear_240_660" x1="91.4339" y1="8.80571" x2="106.576" y2="82.2575" gradientUnits="userSpaceOnUse">
<stop offset="0.0299259" stop-color="#64C1FF"/>
<stop offset="1" stop-color="#27AE60"/>
</linearGradient>
</defs>
</svg>
