<svg width="36" height="36" viewBox="0 0 36 36" fill="none" xmlns="http://www.w3.org/2000/svg">
<g clip-path="url(#clip0_235_390)">
<path d="M32.5098 27.83C31.5455 26.9703 30.7013 25.9848 29.9998 24.9C29.234 23.4025 28.7751 21.7672 28.6498 20.09V15.15C28.6564 12.5156 27.7008 9.96947 25.9625 7.98997C24.2243 6.01046 21.823 4.73385 19.2098 4.39999V3.10999C19.2098 2.75593 19.0692 2.41637 18.8188 2.16601C18.5684 1.91565 18.2289 1.77499 17.8748 1.77499C17.5207 1.77499 17.1812 1.91565 16.9308 2.16601C16.6805 2.41637 16.5398 2.75593 16.5398 3.10999V4.41999C13.9501 4.77792 11.5778 6.06225 9.86233 8.0351C8.14689 10.008 7.20453 12.5356 7.2098 15.15V20.09C7.08456 21.7672 6.62558 23.4025 5.8598 24.9C5.17069 25.9823 4.34 26.9677 3.3898 27.83C3.28314 27.9237 3.19765 28.0391 3.13902 28.1684C3.0804 28.2977 3.04998 28.438 3.0498 28.58V29.94C3.0498 30.2052 3.15516 30.4596 3.3427 30.6471C3.53023 30.8346 3.78459 30.94 4.0498 30.94H31.8498C32.115 30.94 32.3694 30.8346 32.5569 30.6471C32.7444 30.4596 32.8498 30.2052 32.8498 29.94V28.58C32.8496 28.438 32.8192 28.2977 32.7606 28.1684C32.702 28.0391 32.6165 27.9237 32.5098 27.83ZM5.1298 28.94C6.06021 28.0412 6.8794 27.034 7.56981 25.94C8.53442 24.1315 9.09724 22.136 9.2198 20.09V15.15C9.18015 13.978 9.37673 12.8101 9.79785 11.7157C10.219 10.6213 10.856 9.62278 11.6711 8.7797C12.4861 7.93661 13.4624 7.26616 14.542 6.80827C15.6215 6.35037 16.7822 6.1144 17.9548 6.1144C19.1274 6.1144 20.2881 6.35037 21.3676 6.80827C22.4472 7.26616 23.4235 7.93661 24.2386 8.7797C25.0536 9.62278 25.6906 10.6213 26.1118 11.7157C26.5329 12.8101 26.7295 13.978 26.6898 15.15V20.09C26.8124 22.136 27.3752 24.1315 28.3398 25.94C29.0302 27.034 29.8494 28.0412 30.7798 28.94H5.1298Z" fill="#493F3F"/>
<path d="M17.9998 34.28C18.6298 34.2655 19.2343 34.0287 19.7064 33.6114C20.1786 33.1942 20.488 32.6234 20.5798 32H15.3198C15.4143 32.6403 15.7381 33.2245 16.2311 33.6439C16.7241 34.0633 17.3526 34.2894 17.9998 34.28Z" fill="#493F3F"/>
</g>
<defs>
<clipPath id="clip0_235_390">
<rect width="36" height="36" fill="white"/>
</clipPath>
</defs>
</svg>
