<svg width="48" height="48" viewBox="0 0 48 48" fill="none" xmlns="http://www.w3.org/2000/svg">
<path d="M17.3092 22.7813H36.3171M17.3092 33.4576H31.8225M17.3092 28.1103H28.4486M10.6301 4.5C10.0334 4.51193 9.46619 4.70978 9.04951 5.05134C8.63284 5.3929 8.39972 5.8511 8.3999 6.32813V38.4119C8.39972 38.8889 8.63284 39.3471 9.04951 39.6887C9.46619 40.0302 10.0334 40.2281 10.6301 40.24H41.8525C42.4592 40.24 43.041 40.0474 43.4699 39.7046C43.8989 39.3617 44.1399 38.8967 44.1399 38.4119V6.28243C44.125 5.80554 43.8774 5.35221 43.4501 5.01919C43.0227 4.68617 42.4494 4.49985 41.8525 4.5H39.5652V12.5621L35.1506 8.98807L30.7131 12.5621V4.5H10.6301Z" stroke="black" stroke-linecap="round" stroke-linejoin="round"/>
</svg>
