<svg width="36" height="36" viewBox="0 0 36 36" fill="none" xmlns="http://www.w3.org/2000/svg">
<path d="M18 22.5C20.4853 22.5 22.5 20.4853 22.5 18C22.5 15.5147 20.4853 13.5 18 13.5C15.5147 13.5 13.5 15.5147 13.5 18C13.5 20.4853 15.5147 22.5 18 22.5Z" stroke="black" stroke-width="1.5"/>
<path opacity="0.5" d="M20.6477 3.228C20.0972 3 19.3982 3 18.0002 3C16.6022 3 15.9032 3 15.3527 3.228C14.9885 3.37877 14.6575 3.59984 14.3788 3.87859C14.1 4.15733 13.879 4.48827 13.7282 4.8525C13.5902 5.187 13.5347 5.5785 13.5137 6.147C13.5043 6.55798 13.3907 6.95985 13.1834 7.31486C12.9761 7.66986 12.682 7.96636 12.3287 8.1765C11.97 8.37756 11.5662 8.48415 11.155 8.48625C10.7438 8.48835 10.3389 8.38589 9.97819 8.1885C9.47419 7.9215 9.10969 7.7745 8.74819 7.7265C7.95967 7.62281 7.16224 7.83646 6.53119 8.3205C6.06019 8.685 5.70919 9.2895 5.01019 10.5C4.31119 11.7105 3.96019 12.315 3.88369 12.9075C3.83214 13.2982 3.85807 13.6952 3.95999 14.0758C4.06191 14.4565 4.23782 14.8133 4.47769 15.126C4.69969 15.414 5.01019 15.6555 5.49169 15.9585C6.20119 16.404 6.65719 17.163 6.65719 18C6.65719 18.837 6.20119 19.596 5.49169 20.04C5.01019 20.3445 4.69819 20.586 4.47769 20.874C4.23782 21.1867 4.06191 21.5435 3.95999 21.9242C3.85807 22.3048 3.83214 22.7018 3.88369 23.0925C3.96169 23.6835 4.31119 24.2895 5.00869 25.5C5.70919 26.7105 6.05869 27.315 6.53119 27.6795C6.84384 27.9194 7.20069 28.0953 7.58135 28.1972C7.962 28.2991 8.35901 28.325 8.74969 28.2735C9.10969 28.2255 9.47419 28.0785 9.97819 27.8115C10.3389 27.6141 10.7438 27.5116 11.155 27.5137C11.5662 27.5158 11.97 27.6224 12.3287 27.8235C13.0532 28.2435 13.4837 29.016 13.5137 29.853C13.5347 30.423 13.5887 30.813 13.7282 31.1475C13.879 31.5117 14.1 31.8427 14.3788 32.1214C14.6575 32.4002 14.9885 32.6212 15.3527 32.772C15.9032 33 16.6022 33 18.0002 33C19.3982 33 20.0972 33 20.6477 32.772C21.0119 32.6212 21.3429 32.4002 21.6216 32.1214C21.9003 31.8427 22.1214 31.5117 22.2722 31.1475C22.4102 30.813 22.4657 30.423 22.4867 29.853C22.5167 29.016 22.9472 28.242 23.6717 27.8235C24.0303 27.6224 24.4342 27.5158 24.8454 27.5137C25.2566 27.5116 25.6615 27.6141 26.0222 27.8115C26.5262 28.0785 26.8907 28.2255 27.2507 28.2735C27.6414 28.325 28.0384 28.2991 28.419 28.1972C28.7997 28.0953 29.1565 27.9194 29.4692 27.6795C29.9417 27.3165 30.2912 26.7105 30.9902 25.5C31.6892 24.2895 32.0402 23.685 32.1167 23.0925C32.1682 22.7018 32.1423 22.3048 32.0404 21.9242C31.9385 21.5435 31.7625 21.1867 31.5227 20.874C31.3007 20.586 30.9902 20.3445 30.5087 20.0415C30.1573 19.8279 29.866 19.5285 29.6621 19.1714C29.4582 18.8143 29.3485 18.4112 29.3432 18C29.3432 17.163 29.7992 16.404 30.5087 15.96C30.9902 15.6555 31.3022 15.414 31.5227 15.126C31.7625 14.8133 31.9385 14.4565 32.0404 14.0758C32.1423 13.6952 32.1682 13.2982 32.1167 12.9075C32.0387 12.3165 31.6892 11.7105 30.9917 10.5C30.2912 9.2895 29.9417 8.685 29.4692 8.3205C29.1565 8.08064 28.7997 7.90472 28.419 7.8028C28.0384 7.70088 27.6414 7.67495 27.2507 7.7265C26.8907 7.7745 26.5262 7.9215 26.0207 8.1885C25.6602 8.38562 25.2555 8.48793 24.8446 8.48584C24.4338 8.48374 24.0302 8.3773 23.6717 8.1765C23.3184 7.96636 23.0243 7.66986 22.817 7.31486C22.6097 6.95985 22.496 6.55798 22.4867 6.147C22.4657 5.577 22.4117 5.187 22.2722 4.8525C22.1214 4.48827 21.9003 4.15733 21.6216 3.87859C21.3429 3.59984 21.0119 3.37877 20.6477 3.228Z" stroke="black" stroke-width="1.5"/>
</svg>
