<svg width="38" height="38" viewBox="0 0 38 38" fill="none" xmlns="http://www.w3.org/2000/svg">
<path d="M20.3763 24.544L12.0723 26.0387L13.4563 17.624L29.3169 1.81877C29.5742 1.55933 29.8803 1.35341 30.2177 1.21288C30.555 1.07235 30.9167 1 31.2822 1C31.6476 1 32.0094 1.07235 32.3467 1.21288C32.684 1.35341 32.9901 1.55933 33.2474 1.81877L36.1815 4.75284C36.441 5.01017 36.6469 5.31631 36.7874 5.65362C36.9279 5.99092 37.0003 6.35271 37.0003 6.71812C37.0003 7.08353 36.9279 7.44532 36.7874 7.78263C36.6469 8.11993 36.441 8.42608 36.1815 8.6834L20.3763 24.544Z" stroke="black" stroke-linecap="round" stroke-linejoin="round"/>
<path d="M32.832 25.928V34.232C32.832 34.9661 32.5403 35.6702 32.0212 36.1893C31.5021 36.7084 30.7981 37 30.064 37H3.768C3.03388 37 2.32983 36.7084 1.81073 36.1893C1.29163 35.6702 1 34.9661 1 34.232V7.93603C1 7.20191 1.29163 6.49786 1.81073 5.97876C2.32983 5.45966 3.03388 5.16803 3.768 5.16803H12.072" stroke="black" stroke-linecap="round" stroke-linejoin="round"/>
</svg>
